<svg width="66" height="66" viewBox="0 0 66 66" fill="none" xmlns="http://www.w3.org/2000/svg">
    <path d="M33.0972 0.357303V0.389815C33.1297 0.552377 33.1297 0.74745 33.1297 0.942524V24.3839C33.0972 24.514 32.9997 24.5465 32.9021 24.6115C32.2194 24.9366 31.5691 25.2292 30.8864 25.5218C29.9435 25.9445 28.9681 26.3997 28.0253 26.8223L24.6115 28.3829C23.6686 28.8056 22.7258 29.2282 21.8154 29.6509C20.71 30.1711 19.5721 30.6588 18.4667 31.179C17.5238 31.6016 16.581 32.0568 15.6056 32.4795C14.8253 32.8371 14.045 33.1622 13.2972 33.5199C13.2322 33.5524 13.1672 33.5849 13.1021 33.5849C13.0696 33.5849 13.0696 33.5849 13.0371 33.5524L13.9149 32.0893C15.6056 29.2933 17.2637 26.5297 18.9544 23.7337C20.7425 20.7425 22.5632 17.7514 24.3514 14.7603C26.0095 11.9967 27.7002 9.23317 29.3583 6.46962C30.5612 4.45385 31.7967 2.43809 32.9997 0.422327C33.0322 0.357303 33.0647 0.32479 33.0647 0.259766H33.0972C33.0647 0.292278 33.0972 0.32479 33.0972 0.357303Z" fill="#8A92B2" />
    <path d="M53.0588 33.5531L53.0914 33.5857L48.312 36.4142L33.2913 45.2901C33.2263 45.3226 33.1613 45.3551 33.1288 45.3876C33.0313 45.3876 33.0312 45.2901 33.0312 45.2576V44.965V24.8724C33.0312 24.7748 33.0313 24.6448 33.0638 24.5472C33.0963 24.4172 33.1938 24.4497 33.2913 24.4822C33.714 24.6773 34.1692 24.8724 34.5918 25.0674C35.8598 25.6526 37.1278 26.2379 38.3958 26.7906C39.5012 27.2783 40.5741 27.7985 41.6795 28.2861C42.7849 28.7738 43.8904 29.294 44.9958 29.7817C45.9386 30.2044 46.914 30.6595 47.8569 31.0822C48.7997 31.5049 49.7751 31.96 50.718 32.3827C51.4657 32.7078 52.2135 33.0655 52.9613 33.3906C52.9613 33.4881 52.9938 33.5206 53.0588 33.5531Z" fill="#454A75" />
    <path d="M33.0972 65.5763C33.0972 65.6088 33.0647 65.6413 33.0647 65.6738H33.0322C33.0322 65.6088 32.9672 65.5763 32.9346 65.5113C30.9189 62.6827 28.9031 59.8216 26.8874 56.993C24.8391 54.0994 22.7583 51.1733 20.71 48.2797C18.7268 45.4837 16.711 42.6551 14.7277 39.859C14.2076 39.1113 13.6874 38.396 13.1672 37.6482C13.1346 37.5832 13.1021 37.5507 13.0371 37.4531C13.1346 37.4531 13.1997 37.5182 13.2322 37.5507C16.0608 39.2088 18.8568 40.8669 21.6854 42.525C24.9366 44.4433 28.1553 46.3615 31.4066 48.2797L33.0647 49.2551C33.1297 49.3201 33.1297 49.3851 33.1297 49.4502V65.1211C33.1297 65.2837 33.1297 65.4462 33.0972 65.5763Z" fill="#8A92B2" />
    <path d="M13.0039 33.6177V33.5852C14.0443 33.13 15.0522 32.6423 16.0926 32.1872C17.4256 31.5694 18.7586 30.9842 20.0916 30.3665C21.0995 29.9113 22.1399 29.4236 23.1477 28.9684C24.6433 28.2857 26.1064 27.6354 27.6019 26.9527C28.6098 26.4975 29.6177 26.0423 30.6581 25.5546C31.3734 25.2295 32.1211 24.9044 32.8364 24.5793C32.9014 24.5468 32.999 24.5142 33.0315 24.4492C33.064 24.4492 33.064 24.4817 33.0315 24.5142V45.1596C33.0315 45.2571 32.999 45.3546 33.064 45.4197C32.999 45.5172 32.934 45.4197 32.9014 45.3871C32.6088 45.2246 32.3162 45.062 32.0236 44.867C25.7487 41.1605 19.4413 37.4216 13.1665 33.7152C13.134 33.6827 13.0689 33.6502 13.0039 33.6177Z" fill="#62688F" />
    <path d="M52.9945 37.4531H53.027C53.027 37.5181 52.962 37.5832 52.9295 37.6482C46.9472 46.0689 40.9649 54.5221 34.9827 62.9428C34.3649 63.8206 33.7147 64.6985 33.097 65.5763C33.0645 65.5438 33.0645 65.5113 33.0645 65.4787V65.2837V49.5152V49.2226C34.43 48.4098 35.763 47.6295 37.1285 46.8167C42.3955 43.6955 47.6625 40.6068 52.897 37.4856C52.9295 37.5182 52.962 37.4856 52.9945 37.4531Z" fill="#62688F" />
    <path d="M33.065 24.5148V24.4497V24.2547V0.650724C33.065 0.553187 33.0325 0.488162 33.0975 0.390625C39.6975 11.3473 46.2975 22.2714 52.865 33.2281C52.9301 33.3256 53.0276 33.4556 53.0601 33.5857C52.6049 33.4231 52.1823 33.1955 51.7596 33.0005C51.2394 32.7729 50.6867 32.5128 50.1665 32.2852C49.8414 32.1226 49.4837 31.9926 49.1586 31.83C48.6059 31.5699 48.0532 31.3423 47.5005 31.0823C47.1754 30.9522 46.8502 30.7896 46.5251 30.6271L44.3793 29.6517C44.0217 29.4891 43.664 29.3266 43.2739 29.164L41.7133 28.4813C41.3882 28.3512 41.0631 28.1887 40.7379 28.0261L38.5921 27.0507C38.2345 26.8882 37.8768 26.7256 37.4867 26.563L35.9261 25.8803C35.5685 25.7177 35.2433 25.5552 34.8857 25.3926C34.268 25.1 33.6502 24.8074 33 24.5473C33.0975 24.5148 33.065 24.5148 33.065 24.5148Z" fill="#62688F" />
</svg>